HIERARCHY
ROOT Hips
{
	OFFSET -3.958830 18.904000 13.208200
	CHANNELS 6 Xposition Yposition Zposition Zrotation Yrotation Xrotation 
	JOINT LHipJoint
	{
		OFFSET 0.000000 0.000000 0.000000
		CHANNELS 3 Zrotation Yrotation Xrotation
		JOINT LeftUpLeg
		{
			OFFSET 1.800000 -1.400000 0.085000
			CHANNELS 3 Zrotation Yrotation Xrotation
			JOINT LeftLeg
			{
				OFFSET 2.215000 -6.000000 0.000000
				CHANNELS 3 Zrotation Yrotation Xrotation
				JOINT LeftFoot
				{
					OFFSET 2.500000 -6.900000 0.000000
					CHANNELS 3 Zrotation Yrotation Xrotation
					JOINT LeftToeBase
					{
						OFFSET 0.200000 -0.500000 1.950000
						CHANNELS 3 Zrotation Yrotation Xrotation
						End Site
						{
							OFFSET 0.000000 0.000000 0.000000
						}
					}
				}
			}
		}
	}
	JOINT RHipJoint
	{
		OFFSET 0.000000 0.000000 0.000000
		CHANNELS 3 Zrotation Yrotation Xrotation
		JOINT RightUpLeg
		{
			OFFSET -1.800000 -1.400000 0.085000
			CHANNELS 3 Zrotation Yrotation Xrotation
			JOINT RightLeg
			{
				OFFSET -2.215000 -6.000000 0.000000
				CHANNELS 3 Zrotation Yrotation Xrotation
				JOINT RightFoot
				{
					OFFSET -2.500000 -6.900000 0.000000
					CHANNELS 3 Zrotation Yrotation Xrotation
					JOINT RightToeBase
					{
						OFFSET -0.200000 -0.500000 1.950000
						CHANNELS 3 Zrotation Yrotation Xrotation
						End Site
						{
							OFFSET 0.000000 0.000000 0.000000
						}
					}
				}
			}
		}
	}
	JOINT LowerBack
	{
		OFFSET 0.000000 0.000000 0.000000
		CHANNELS 3 Zrotation Yrotation Xrotation
		JOINT Spine
		{
			OFFSET -0.087000 1.940000 -0.288900
			CHANNELS 3 Zrotation Yrotation Xrotation
			JOINT Spine1
			{
				OFFSET 0.000000 1.950000 0.060000
				CHANNELS 3 Zrotation Yrotation Xrotation
				JOINT Neck
				{
					OFFSET 0.000000 0.000000 0.000000
					CHANNELS 3 Zrotation Yrotation Xrotation
					JOINT Neck1
					{
						OFFSET 0.000000 1.600000 0.340000
						CHANNELS 3 Zrotation Yrotation Xrotation
						JOINT Head
						{
							OFFSET 0.000000 1.667000 -0.240000
							CHANNELS 3 Zrotation Yrotation Xrotation
							End Site
							{
								OFFSET 0.000000 0.000000 0.000000
							}
						}
					}
				}
				JOINT LeftShoulder
				{
					OFFSET 0.000000 0.000000 0.000000
					CHANNELS 3 Zrotation Yrotation Xrotation
					JOINT LeftArm
					{
						OFFSET 2.700000 1.550000 -0.730000
						CHANNELS 3 Zrotation Yrotation Xrotation
						JOINT LeftForeArm
						{
							OFFSET 5.450000 0.000000 0.000000
							CHANNELS 3 Zrotation Yrotation Xrotation
							JOINT LeftHand
							{
								OFFSET 3.450000 0.000000 0.000000
								CHANNELS 3 Zrotation Yrotation Xrotation
								JOINT LeftHandIndex1
								{
									OFFSET 0.750000 0.000000 0.000000
									CHANNELS 3 Zrotation Yrotation Xrotation
									End Site
									{
										OFFSET 0.000000 0.000000 0.000000
									}
								}
							}
						}
					}
				}
				JOINT RightShoulder
				{
					OFFSET 0.000000 0.000000 0.000000
					CHANNELS 3 Zrotation Yrotation Xrotation
					JOINT RightArm
					{
						OFFSET -2.700000 1.550000 -0.730000
						CHANNELS 3 Zrotation Yrotation Xrotation
						JOINT RightForeArm
						{
							OFFSET -5.450000 0.000000 0.000000
							CHANNELS 3 Zrotation Yrotation Xrotation
							JOINT RightHand
							{
								OFFSET -3.450000 0.000000 0.000000
								CHANNELS 3 Zrotation Yrotation Xrotation
								JOINT RightHandIndex1
								{
									OFFSET -0.750000 0.000000 0.000000
									CHANNELS 3 Zrotation Yrotation Xrotation
									End Site
									{
										OFFSET 0.000000 0.000000 0.000000
									}
								}
							}
						}
					}
				}
			}
		}
	}
}
MOTION
Frames: 8
Frame Time: 0.016667
0.278400 16.866690 -1.325820 -1.944430 -4.078636 4.120362 -14.987159 13.287266 2.490232 8.340798 -0.895022 -13.008626 -6.916955 6.449083 13.780423 -0.590982 4.948734 3.284012 -0.356540 -0.775800 -0.347550 18.408991 -11.084934 2.565480 -10.460008 0.909545 -11.028010 10.754768 -6.215894 11.408232 0.275359 -4.479393 3.184902 -0.109820 1.184190 0.177800 -4.000859 -1.262077 -6.492756 9.196355 1.975538 1.331854 -3.365552 2.320449 8.485473 -0.175834 -5.369297 -7.942850 -10.678210 12.949738 30.605599 -3.360700 11.997260 13.950610 -3.347315 -1.087287 4.055291 -30.770803 -10.649460 -0.934805 47.958668 -54.188381 -23.339374 -4.404837 2.637502 -0.043780 0.926740 -0.865490 0.155000 3.734461 5.232023 1.829996 29.800242 21.042127 0.974352 -16.082616 19.196732 -3.216080 1.952893 -1.546412 -0.644270 0.346210 0.458310 -0.162640 
0.278500 16.866690 -1.325770 -1.951158 -4.073314 4.117701 -14.986959 13.288377 2.489731 8.342626 -0.894613 -13.012795 -6.904259 6.448604 13.793145 -0.590969 4.948521 3.284280 -0.357130 -0.776290 -0.347760 18.408960 -11.085658 2.565704 -10.454675 0.909464 -11.028222 10.757321 -6.218624 11.421089 0.275676 -4.480098 3.184795 -0.110060 1.184630 0.177410 -4.001067 -1.262528 -6.493090 9.196453 1.981791 1.337622 -3.333494 2.320860 8.483553 -0.194269 -5.363943 -7.944229 -10.671228 12.934461 30.609164 -3.361140 11.988870 13.960420 -3.273470 -1.071618 4.057783 -30.731834 -10.657885 -0.915096 47.770812 -54.246757 -23.259366 -4.404766 2.640272 -0.044180 0.926990 -0.865890 0.154820 3.698107 5.212014 1.827970 29.803937 21.032577 0.970736 -16.102495 19.209074 -3.219675 1.952892 -1.546599 -0.644550 0.346530 0.458440 -0.162470 
0.278650 16.866620 -1.325680 -1.961570 -4.066963 4.114137 -14.986994 13.290306 2.488896 8.343410 -0.893846 -13.018142 -6.880075 6.445535 13.807054 -0.590385 4.947150 3.285172 -0.358170 -0.777310 -0.347920 18.408558 -11.086756 2.566001 -10.447539 0.909668 -11.029281 10.760327 -6.222571 11.441883 0.276274 -4.481572 3.184206 -0.110660 1.184930 0.177280 -4.000330 -1.263587 -6.493492 9.184672 1.995389 1.343515 -3.262095 2.322078 8.483538 -0.227444 -5.350467 -7.946336 -10.650408 12.897541 30.611200 -3.381820 11.982540 13.989030 -3.134520 -1.043233 4.063528 -30.658867 -10.672362 -0.878451 47.425392 -54.352495 -23.110173 -4.404898 2.646708 -0.045540 0.927680 -0.866630 0.154420 3.628167 5.174984 1.823502 29.806253 21.018927 0.966801 -16.136611 19.228161 -3.226037 1.953127 -1.547932 -0.644470 0.345980 0.458440 -0.162340 
0.279020 16.866670 -1.325600 -1.980663 -4.059099 4.103558 -14.986695 13.293004 2.488157 8.351012 -0.891831 -13.020691 -6.856083 6.444284 13.827091 -0.589940 4.946318 3.285437 -0.358480 -0.777910 -0.347280 18.408301 -11.088305 2.566465 -10.431029 0.908255 -11.021806 10.756070 -6.225296 11.462321 0.276316 -4.482233 3.183872 -0.111340 1.184380 0.177160 -4.000208 -1.265277 -6.494854 9.181269 2.009637 1.357744 -3.170098 2.319954 8.487090 -0.271750 -5.335745 -7.956192 -10.632837 12.856326 30.636391 -3.399450 11.972070 14.009980 -2.946055 -1.017016 4.078079 -30.550662 -10.667695 -0.838597 46.933949 -54.512398 -22.905096 -4.403510 2.655542 -0.045880 0.927520 -0.866660 0.154030 3.531543 5.138264 1.821927 29.806232 21.003678 0.957644 -16.195906 19.242170 -3.235751 1.953549 -1.549310 -0.644230 0.345230 0.458060 -0.162430 
0.279390 16.866640 -1.325590 -1.992820 -4.054325 4.090603 -14.987038 13.296595 2.487580 8.350897 -0.889141 -13.023341 -6.829331 6.443196 13.852020 -0.589475 4.945143 3.285937 -0.358590 -0.777900 -0.346530 18.407286 -11.089633 2.566723 -10.421843 0.907466 -11.019168 10.752437 -6.228532 11.488571 0.276145 -4.482630 3.183446 -0.111540 1.183420 0.176800 -3.997988 -1.269041 -6.496352 9.150864 2.028395 1.373515 -3.042812 2.317784 8.496589 -0.329004 -5.316041 -7.967615 -10.608540 12.805088 30.668972 -3.425890 11.960630 14.019900 -2.711994 -0.989503 4.096627 -30.404714 -10.650636 -0.793140 46.252082 -54.719146 -22.616036 -4.401687 2.667136 -0.046130 0.927180 -0.866230 0.153820 3.417593 5.099415 1.818960 29.792040 20.995001 0.951556 -16.258003 19.238112 -3.244472 1.954173 -1.550585 -0.644060 0.344840 0.457350 -0.162590 
0.279910 16.866810 -1.325640 -2.003790 -4.053466 4.071139 -14.987419 13.301145 2.487283 8.346949 -0.885414 -13.019713 -6.799071 6.441191 13.875362 -0.589102 4.943487 3.286528 -0.358600 -0.778330 -0.344910 18.405994 -11.091499 2.566767 -10.414178 0.905980 -11.013292 10.743277 -6.232761 11.521605 0.275712 -4.482644 3.183290 -0.112490 1.181890 0.176480 -3.995196 -1.273859 -6.498522 9.113709 2.050631 1.394761 -2.896524 2.315598 8.512428 -0.394150 -5.293374 -7.987123 -10.585270 12.741613 30.729319 -3.466410 11.949470 14.027030 -2.431772 -0.968586 4.120824 -30.219990 -10.621415 -0.742557 45.343111 -54.964518 -22.222016 -4.399343 2.682180 -0.045560 0.926360 -0.865360 0.153290 3.274494 5.065537 1.822933 29.787344 20.984561 0.945254 -16.321785 19.220698 -3.251947 1.955092 -1.551334 -0.643760 0.344370 0.456630 -0.163140 
0.280430 16.866840 -1.325680 -2.000058 -4.056369 4.047222 -14.988561 13.307103 2.487473 8.327518 -0.881410 -13.016175 -6.768509 6.441484 13.912446 -0.588238 4.941666 3.286739 -0.358210 -0.777990 -0.342920 18.403718 -11.093093 2.566282 -10.423067 0.904875 -11.011508 10.736771 -6.239548 11.567225 0.275077 -4.483038 3.182261 -0.113110 1.179310 0.176030 -3.989802 -1.282192 -6.500921 9.042948 2.074766 1.419548 -2.717476 2.311224 8.531553 -0.475600 -5.270648 -8.009839 -10.566417 12.672976 30.799066 -3.507670 11.933780 14.025740 -2.103864 -0.945101 4.150116 -30.003076 -10.579528 -0.683789 44.170835 -55.251289 -21.705662 -4.396481 2.702306 -0.045060 0.924900 -0.863930 0.152460 3.118492 5.031664 1.826774 29.781088 20.975487 0.937787 -16.398056 19.209294 -3.261903 1.956330 -1.552328 -0.642940 0.343450 0.455590 -0.163730 
0.281180 16.866870 -1.325730 -1.995174 -4.055101 4.014776 -14.990044 13.314173 2.487875 8.305753 -0.876518 -13.004708 -6.734415 6.440715 13.948155 -0.587023 4.939241 3.286623 -0.357450 -0.777660 -0.339940 18.400928 -11.094639 2.565763 -10.432917 0.901709 -11.000704 10.726722 -6.246093 11.611419 0.274108 -4.483076 3.181226 -0.113940 1.175100 0.175880 -3.983149 -1.292833 -6.504194 8.960754 2.096909 1.450157 -2.513012 2.300866 8.557977 -0.563655 -5.244603 -8.040149 -10.548239 12.592466 30.899399 -3.563860 11.919830 14.023790 -1.752375 -0.934936 4.186162 -29.741800 -10.512846 -0.623910 42.774529 -55.586285 -21.091223 -4.392819 2.726316 -0.043910 0.922730 -0.861540 0.151190 2.954007 5.009024 1.837144 29.758887 20.961801 0.924628 -16.483233 19.199141 -3.271948 1.957910 -1.553195 -0.641660 0.341520 0.454010 -0.164870 
